<?xml version="1.0" standalone="no"?>
<!DOCTYPE svg PUBLIC "-//W3C//DTD SVG 20010904//EN"
 "http://www.w3.org/TR/2001/REC-SVG-20010904/DTD/svg10.dtd">
<svg version="1.0" xmlns="http://www.w3.org/2000/svg"
 width="360.000000pt" height="360.000000pt" viewBox="0 0 360.000000 360.000000"
 preserveAspectRatio="xMidYMid meet">

<g transform="translate(0.000000,360.000000) scale(0.100000,-0.100000)"
fill="#000000" stroke="none">
<path d="M945 3306 c-97 -119 -178 -417 -210 -778 -6 -61 -11 -72 -62 -139
-137 -181 -215 -429 -215 -681 -1 -103 -1 -108 -22 -109 -140 -5 -200 -18
-240 -56 -35 -32 -33 -61 8 -114 65 -85 161 -155 284 -210 82 -36 85 -39 119
-101 42 -74 73 -117 165 -219 l67 -77 -47 -17 c-107 -40 -230 -133 -262 -200
-55 -114 6 -173 190 -182 79 -4 112 -1 197 20 118 30 169 54 235 108 l47 40
40 -20 c21 -11 56 -25 78 -30 222 -57 242 -61 328 -61 50 0 119 5 154 10 l64
9 53 -47 c99 -88 220 -149 353 -177 93 -19 116 -19 175 4 107 40 113 102 22
225 -32 43 -72 86 -90 97 l-33 19 23 46 c13 26 49 69 81 97 96 83 211 208 261
282 49 73 117 226 147 330 10 33 22 70 26 83 5 13 9 43 9 67 0 63 5 71 84 124
97 66 261 232 313 317 64 104 143 261 143 284 0 23 -63 73 -130 102 -25 11
-64 28 -87 39 -80 36 -267 79 -408 94 -76 9 -145 13 -153 10 -47 -18 -150 81
-169 165 -14 60 -84 172 -138 218 -93 83 -211 131 -316 132 -78 0 -212 -28
-308 -65 l-71 -27 -30 22 c-16 12 -30 25 -30 29 0 4 -24 31 -52 59 -131 128
-338 254 -491 300 l-67 20 -35 -42z m136 -10 c19 -8 54 -23 79 -31 121 -42
361 -221 431 -322 l29 -42 -57 -44 c-122 -95 -203 -207 -248 -343 -40 -123
-44 -230 -9 -329 4 -12 -6 -5 -25 17 -17 20 -57 49 -89 65 -47 23 -70 28 -132
28 -101 0 -184 -40 -264 -126 -75 -80 -108 -153 -114 -251 -14 -221 114 -366
316 -359 177 6 334 197 352 426 5 76 6 79 19 53 21 -42 125 -124 189 -150 149
-59 354 7 421 135 31 62 38 140 17 191 -9 21 -16 40 -16 41 0 2 39 6 88 10
113 9 210 30 247 55 38 25 30 25 -48 0 -34 -10 -116 -24 -181 -30 -151 -15
-211 -36 -279 -102 l-52 -50 52 36 c28 20 72 46 98 57 64 28 75 18 75 -75 0
-124 -52 -199 -172 -247 -71 -29 -173 -29 -246 -1 -93 36 -147 86 -192 177
-80 162 -89 269 -36 425 43 125 75 176 173 271 92 90 140 119 270 166 92 33
106 36 223 37 120 1 128 0 200 -31 98 -43 185 -127 235 -228 37 -73 58 -166
48 -206 -4 -15 -3 -20 5 -15 7 4 12 18 12 32 0 36 14 30 67 -31 48 -55 68 -68
57 -40 -8 20 40 20 206 0 165 -19 302 -55 427 -113 114 -53 153 -82 153 -112
0 -57 -172 -322 -286 -440 -47 -49 -121 -112 -165 -140 -63 -42 -79 -57 -79
-77 0 -53 -36 -195 -77 -303 -45 -121 -57 -145 -105 -217 -49 -73 -254 -293
-274 -293 -8 0 -9 31 -6 99 3 59 1 101 -5 104 -6 4 -12 -34 -15 -102 -5 -89
-10 -119 -33 -168 -15 -35 -37 -66 -51 -73 -74 -40 -197 80 -244 237 -7 23
-17 40 -21 37 -11 -7 18 -101 48 -154 14 -25 41 -62 61 -82 l35 -37 -37 -17
c-20 -10 -36 -21 -36 -26 0 -11 2 -11 50 11 37 16 45 17 69 5 32 -17 63 -18
78 -3 27 27 203 -167 203 -223 0 -48 -35 -71 -133 -87 -65 -11 -194 14 -277
52 -47 22 -125 75 -170 115 l-45 40 40 11 c46 13 97 40 76 41 -7 0 -52 -10
-100 -22 -112 -29 -336 -31 -451 -4 -155 36 -292 89 -377 146 -18 12 -33 17
-33 12 0 -6 28 -28 61 -49 l61 -37 -33 -29 c-93 -79 -235 -121 -404 -122 -155
0 -205 24 -205 98 0 28 45 99 92 144 38 36 186 113 218 113 12 0 41 -14 66
-30 24 -17 44 -29 44 -26 0 3 -55 60 -123 128 -141 142 -210 241 -264 377 -24
62 -39 88 -41 75 -2 -12 4 -38 12 -58 9 -21 11 -38 5 -41 -13 -9 -109 37 -188
90 -88 59 -160 144 -161 191 0 31 74 62 171 70 92 8 109 -1 109 -60 0 -17 5
-38 11 -46 7 -11 8 2 4 45 -11 113 -9 319 4 390 40 208 111 370 226 512 41 51
67 89 58 86 -15 -6 -16 4 -10 108 9 161 38 308 92 467 45 132 70 186 104 225
18 22 67 19 122 -7z m115 -1049 c60 -31 87 -59 114 -119 22 -51 38 -172 24
-181 -5 -3 -9 23 -9 57 -1 75 -16 112 -61 150 -151 126 -380 25 -429 -189 -14
-58 -6 -124 19 -172 22 -42 76 -89 118 -103 47 -14 155 -11 188 6 50 25 100
80 130 144 17 38 28 53 24 35 -19 -101 -111 -218 -210 -269 -188 -97 -381 25
-409 256 -13 111 41 236 140 322 120 106 237 126 361 63z m66 -124 c23 -20 31
-59 17 -86 -16 -30 -28 -37 -66 -37 -44 0 -73 30 -73 74 0 65 72 94 122 49z
m-147 -283 c4 -6 11 -8 16 -4 6 3 18 2 27 -2 9 -4 26 -9 37 -11 11 -2 27 -10
35 -19 13 -13 11 -19 -23 -49 -69 -62 -185 -75 -253 -29 -43 29 -65 55 -57 66
22 37 201 76 218 48z"/>
<path d="M983 3183 c1 -10 -15 -52 -35 -93 -61 -123 -105 -343 -91 -460 4 -33
2 -55 -7 -65 -7 -8 -8 -15 -2 -15 5 0 16 7 23 16 33 39 345 226 406 243 17 5
27 14 27 24 -3 29 -117 179 -210 274 -89 92 -116 110 -111 76z"/>
<path d="M2775 2261 c-16 -4 -29 -11 -28 -17 1 -5 20 -55 43 -111 44 -111 90
-292 90 -360 0 -44 13 -63 27 -40 4 8 35 38 68 66 92 80 211 217 267 309 41
65 55 81 70 76 10 -3 18 -1 18 4 0 16 -75 41 -182 62 -100 20 -307 26 -373 11z"/>
<path d="M2077 1886 c-74 -31 -116 -64 -161 -124 -119 -163 -117 -352 5 -487
94 -102 214 -135 344 -94 139 44 223 158 245 331 11 92 -1 161 -41 245 -59
122 -255 187 -392 129z m245 -20 c95 -43 163 -137 173 -243 2 -26 2 -39 -1
-28 -22 90 -40 129 -78 173 -90 102 -296 74 -382 -51 -43 -62 -58 -115 -57
-199 1 -115 55 -193 171 -246 65 -29 141 -26 197 8 49 30 100 105 130 190 22
65 25 69 20 30 -13 -92 -47 -160 -110 -224 -69 -70 -132 -96 -234 -96 -104 0
-198 62 -272 180 -23 36 -42 151 -34 199 24 146 112 261 239 313 63 26 173 24
238 -6z m66 -106 c46 -43 15 -120 -48 -120 -35 0 -80 38 -80 68 0 11 9 31 21
46 26 33 75 35 107 6z m-59 -345 c30 -8 61 -20 69 -28 12 -12 9 -19 -18 -50
-41 -47 -102 -70 -165 -63 -53 7 -126 44 -149 78 -14 20 -14 23 7 37 55 39
167 50 256 26z"/>
<path d="M1280 1489 c0 -7 24 -36 53 -64 44 -43 65 -55 120 -70 71 -19 156
-17 197 5 32 17 16 24 -25 10 -20 -7 -67 -10 -103 -8 -82 4 -140 32 -199 94
-24 25 -43 39 -43 33z"/>
</g>
</svg>
